<svg id="그룹_2914" data-name="그룹 2914" xmlns="http://www.w3.org/2000/svg" width="20" height="20" viewBox="0 0 20 20">
  <rect id="사각형_748" data-name="사각형 748" width="20" height="20" fill="none" opacity="0.2"/>
  <path id="패스_2478" data-name="패스 2478" d="M594.025,256.94l-7.7-7.7a1.554,1.554,0,0,0-2.19,0l-7.7,7.7a1.553,1.553,0,0,0,0,2.191l7.7,7.7a1.552,1.552,0,0,0,2.19,0l7.7-7.7A1.555,1.555,0,0,0,594.025,256.94Zm-7.435,1.942v-2.048h-1.351a.731.731,0,0,0-.729.73v4.983h-1.64v-4.983a2.372,2.372,0,0,1,2.369-2.369h1.351v-1.67l3.88,2.678Z" transform="translate(-575.229 -248.098)" fill="#575f6b"/>
</svg>